<?xml version="1.0" standalone="no"?>
<!DOCTYPE svg PUBLIC "-//W3C//DTD SVG 20010904//EN"
 "http://www.w3.org/TR/2001/REC-SVG-20010904/DTD/svg10.dtd">
<svg version="1.0" xmlns="http://www.w3.org/2000/svg"
 width="1280.000000pt" height="1280.000000pt" viewBox="0 0 1280.000000 1280.000000"
 preserveAspectRatio="xMidYMid meet">
<metadata>
Created by potrace 1.11, written by Peter Selinger 2001-2013
</metadata>
<g transform="translate(0.000000,1280.000000) scale(0.100000,-0.100000)"
fill="#000000" stroke="none">
<path d="M4990 9413 c-863 -37 -1610 -138 -2275 -308 -207 -53 -353 -99 -420
-132 -147 -74 -258 -212 -300 -372 -21 -81 -21 -228 0 -305 78 -295 382 -491
676 -436 30 6 167 39 304 75 313 81 582 135 890 180 1321 190 2817 134 4120
-157 799 -178 1415 -401 2050 -743 116 -62 232 -120 259 -129 338 -114 698 94
772 444 40 190 -21 397 -160 534 -81 81 -185 145 -482 298 -1342 688 -3146
1067 -5034 1056 -184 -1 -364 -3 -400 -5z"/>
<path d="M5005 7213 c-753 -25 -1479 -136 -2140 -328 -188 -55 -240 -80 -315
-156 -91 -92 -140 -213 -140 -350 0 -189 103 -355 274 -439 142 -71 242 -70
507 4 705 196 1450 287 2244 273 744 -14 1378 -96 2060 -269 655 -165 1229
-392 1780 -704 221 -125 272 -145 380 -152 227 -13 412 108 495 323 20 50 24
79 24 170 0 127 -17 182 -86 286 -49 73 -109 119 -296 228 -404 234 -867 443
-1327 601 -1109 379 -2279 552 -3460 513z"/>
<path d="M5085 5129 c-741 -41 -1173 -94 -1795 -220 -255 -52 -337 -73 -394
-100 -73 -34 -141 -102 -178 -177 -31 -63 -33 -72 -33 -177 0 -105 2 -114 33
-177 41 -84 120 -158 200 -188 108 -41 158 -38 462 24 797 161 1349 220 2035
220 365 0 529 -9 845 -44 883 -101 1668 -352 2395 -768 165 -94 218 -118 291
-127 156 -21 331 80 402 232 24 52 27 70 27 163 0 99 -2 110 -33 172 -44 90
-109 147 -279 245 -862 500 -1818 795 -2903 897 -374 36 -736 44 -1075 25z"/>
</g>
</svg>
